Normalized EMG Linear Envelopes
nRows=54
nColumns=17

endheader
time	        VM	        VL	        RF	       GRA	        TA	   ADDLONG	   SEMIMEM	      BFLH	        GM	        GL	       TFL	   GLUTMAX	   GLUTMED	      PIRI	    OBTINT	        QF	
1.9815	  0.031172	  0.042928	  0.253730	  0.111389	  0.107419	  0.022756	  0.048934	  0.061280	  0.031852	  0.014701	  0.086492	  0.043851	  0.198179	  0.273267	  0.277567	  0.162869	
1.982	  0.030615	  0.042200	  0.248754	  0.109889	  0.105845	  0.022476	  0.049926	  0.061858	  0.032637	  0.014664	  0.084714	  0.043250	  0.196751	  0.272448	  0.279342	  0.163446	
1.9825	  0.030069	  0.041476	  0.243814	  0.108430	  0.104289	  0.022202	  0.050961	  0.062483	  0.033442	  0.014634	  0.082952	  0.042659	  0.195328	  0.271587	  0.281135	  0.164038	
1.983	  0.029534	  0.040757	  0.238910	  0.107012	  0.102754	  0.021937	  0.052040	  0.063155	  0.034267	  0.014611	  0.081206	  0.042080	  0.193910	  0.270685	  0.282946	  0.164646	
1.9835	  0.029011	  0.040042	  0.234043	  0.105637	  0.101237	  0.021680	  0.053162	  0.063876	  0.035112	  0.014596	  0.079477	  0.041512	  0.192497	  0.269742	  0.284774	  0.165268	
1.984	  0.028499	  0.039332	  0.229216	  0.104306	  0.099740	  0.021430	  0.054329	  0.064647	  0.035978	  0.014588	  0.077765	  0.040954	  0.191090	  0.268761	  0.286619	  0.165906	
1.9845	  0.027999	  0.038628	  0.224428	  0.103019	  0.098263	  0.021189	  0.055540	  0.065467	  0.036864	  0.014587	  0.076071	  0.040408	  0.189688	  0.267740	  0.288479	  0.166561	
1.985	  0.027511	  0.037928	  0.219681	  0.101777	  0.096805	  0.020956	  0.056797	  0.066337	  0.037770	  0.014594	  0.074395	  0.039874	  0.188294	  0.266682	  0.290354	  0.167231	
1.9855	  0.027035	  0.037233	  0.214976	  0.100581	  0.095366	  0.020731	  0.058099	  0.067258	  0.038698	  0.014608	  0.072736	  0.039351	  0.186906	  0.265588	  0.292244	  0.167917	
1.986	  0.026571	  0.036545	  0.210313	  0.099433	  0.093947	  0.020514	  0.059447	  0.068232	  0.039646	  0.014630	  0.071096	  0.038839	  0.185526	  0.264457	  0.294148	  0.168619	
1.9865	  0.026119	  0.035862	  0.205695	  0.098332	  0.092546	  0.020307	  0.060842	  0.069257	  0.040615	  0.014660	  0.069475	  0.038339	  0.184154	  0.263290	  0.296065	  0.169338	
1.987	  0.025681	  0.035185	  0.201120	  0.097280	  0.091165	  0.020108	  0.062283	  0.070336	  0.041606	  0.014698	  0.067873	  0.037850	  0.182791	  0.262090	  0.297994	  0.170073	
1.9875	  0.025255	  0.034514	  0.196592	  0.096277	  0.089803	  0.019918	  0.063772	  0.071468	  0.042617	  0.014743	  0.066290	  0.037374	  0.181436	  0.260856	  0.299935	  0.170825	
1.988	  0.024842	  0.033849	  0.192109	  0.095324	  0.088461	  0.019737	  0.065308	  0.072654	  0.043650	  0.014796	  0.064726	  0.036909	  0.180090	  0.259589	  0.301885	  0.171594	
1.9885	  0.024442	  0.033191	  0.187674	  0.094422	  0.087137	  0.019565	  0.066892	  0.073895	  0.044705	  0.014857	  0.063182	  0.036457	  0.178754	  0.258292	  0.303845	  0.172380	
1.989	  0.024055	  0.032540	  0.183286	  0.093571	  0.085833	  0.019403	  0.068524	  0.075191	  0.045781	  0.014927	  0.061658	  0.036016	  0.177427	  0.256965	  0.305813	  0.173182	
1.9895	  0.023682	  0.031896	  0.178947	  0.092773	  0.084549	  0.019250	  0.070204	  0.076543	  0.046878	  0.015004	  0.060154	  0.035588	  0.176110	  0.255609	  0.307788	  0.174001	
1.99	  0.023323	  0.031259	  0.174657	  0.092027	  0.083283	  0.019107	  0.071934	  0.077951	  0.047998	  0.015089	  0.058669	  0.035173	  0.174803	  0.254226	  0.309769	  0.174837	
1.9905	  0.022977	  0.030630	  0.170417	  0.091334	  0.082036	  0.018973	  0.073712	  0.079415	  0.049139	  0.015183	  0.057205	  0.034770	  0.173506	  0.252817	  0.311755	  0.175690	
1.991	  0.022645	  0.030007	  0.166227	  0.090695	  0.080809	  0.018849	  0.075539	  0.080937	  0.050302	  0.015285	  0.055762	  0.034381	  0.172219	  0.251384	  0.313744	  0.176559	
1.9915	  0.022327	  0.029393	  0.162088	  0.090110	  0.079600	  0.018735	  0.077416	  0.082517	  0.051487	  0.015396	  0.054339	  0.034004	  0.170942	  0.249926	  0.315736	  0.177444	
1.992	  0.022024	  0.028786	  0.158001	  0.089580	  0.078410	  0.018632	  0.079342	  0.084154	  0.052694	  0.015515	  0.052936	  0.033641	  0.169675	  0.248446	  0.317729	  0.178345	
1.9925	  0.021734	  0.028187	  0.153966	  0.089106	  0.077239	  0.018538	  0.081318	  0.085850	  0.053922	  0.015642	  0.051555	  0.033291	  0.168419	  0.246945	  0.319722	  0.179262	
1.993	  0.021459	  0.027597	  0.149983	  0.088687	  0.076087	  0.018455	  0.083344	  0.087605	  0.055173	  0.015778	  0.050194	  0.032955	  0.167174	  0.245423	  0.321715	  0.180195	
1.9935	  0.021199	  0.027014	  0.146054	  0.088325	  0.074953	  0.018382	  0.085420	  0.089419	  0.056445	  0.015922	  0.048854	  0.032633	  0.165940	  0.243881	  0.323704	  0.181144	
1.994	  0.020953	  0.026440	  0.142178	  0.088019	  0.073839	  0.018320	  0.087546	  0.091292	  0.057740	  0.016075	  0.047535	  0.032324	  0.164718	  0.242322	  0.325691	  0.182108	
1.9945	  0.020722	  0.025875	  0.138355	  0.087770	  0.072743	  0.018268	  0.089722	  0.093225	  0.059056	  0.016237	  0.046237	  0.032030	  0.163507	  0.240745	  0.327673	  0.183088	
1.995	  0.020506	  0.025318	  0.134587	  0.087579	  0.071666	  0.018227	  0.091949	  0.095218	  0.060393	  0.016408	  0.044960	  0.031750	  0.162308	  0.239152	  0.329649	  0.184083	
1.9955	  0.020304	  0.024770	  0.130873	  0.087445	  0.070608	  0.018196	  0.094226	  0.097271	  0.061753	  0.016587	  0.043704	  0.031484	  0.161121	  0.237544	  0.331618	  0.185094	
1.996	  0.020118	  0.024230	  0.127213	  0.087370	  0.069568	  0.018177	  0.096553	  0.099385	  0.063134	  0.016776	  0.042470	  0.031233	  0.159947	  0.235922	  0.333579	  0.186120	
1.9965	  0.019947	  0.023700	  0.123608	  0.087353	  0.068548	  0.018168	  0.098930	  0.101560	  0.064536	  0.016973	  0.041256	  0.030996	  0.158786	  0.234287	  0.335531	  0.187162	
1.997	  0.019792	  0.023179	  0.120058	  0.087396	  0.067547	  0.018170	  0.101358	  0.103795	  0.065960	  0.017179	  0.040063	  0.030775	  0.157639	  0.232640	  0.337471	  0.188220	
1.9975	  0.019652	  0.022667	  0.116563	  0.087497	  0.066564	  0.018184	  0.103836	  0.106091	  0.067405	  0.017394	  0.038892	  0.030570	  0.156506	  0.230984	  0.339400	  0.189293	
1.998	  0.019527	  0.022165	  0.113124	  0.087658	  0.065601	  0.018208	  0.106364	  0.108449	  0.068871	  0.017618	  0.037741	  0.030379	  0.155387	  0.229318	  0.341316	  0.190383	
1.9985	  0.019418	  0.021672	  0.109739	  0.087879	  0.064656	  0.018244	  0.108942	  0.110867	  0.070358	  0.017851	  0.036612	  0.030205	  0.154284	  0.227645	  0.343217	  0.191489	
1.999	  0.019325	  0.021188	  0.106409	  0.088160	  0.063731	  0.018290	  0.111570	  0.113347	  0.071866	  0.018094	  0.035503	  0.030046	  0.153196	  0.225966	  0.345102	  0.192612	
1.9995	  0.019248	  0.020715	  0.103135	  0.088502	  0.062825	  0.018348	  0.114247	  0.115888	  0.073394	  0.018345	  0.034416	  0.029904	  0.152125	  0.224281	  0.346971	  0.193751	
2	  0.019186	  0.020251	  0.099915	  0.088904	  0.061939	  0.018418	  0.116974	  0.118490	  0.074943	  0.018605	  0.033349	  0.029778	  0.151070	  0.222593	  0.348821	  0.194907	
2.0005	  0.019141	  0.019796	  0.096751	  0.089367	  0.061072	  0.018498	  0.119750	  0.121154	  0.076512	  0.018875	  0.032303	  0.029668	  0.150033	  0.220901	  0.350652	  0.196081	
2.001	  0.019111	  0.019352	  0.093642	  0.089892	  0.060225	  0.018590	  0.122575	  0.123878	  0.078101	  0.019153	  0.031278	  0.029576	  0.149014	  0.219209	  0.352462	  0.197271	
2.0015	  0.019098	  0.018918	  0.090587	  0.090478	  0.059398	  0.018693	  0.125448	  0.126664	  0.079711	  0.019441	  0.030273	  0.029500	  0.148013	  0.217515	  0.354251	  0.198479	
2.002	  0.019101	  0.018493	  0.087588	  0.091126	  0.058592	  0.018808	  0.128370	  0.129511	  0.081340	  0.019738	  0.029289	  0.029442	  0.147032	  0.215823	  0.356017	  0.199704	
2.0025	  0.019120	  0.018079	  0.084643	  0.091836	  0.057806	  0.018934	  0.131339	  0.132418	  0.082988	  0.020044	  0.028325	  0.029400	  0.146069	  0.214132	  0.357759	  0.200947	
2.003	  0.019155	  0.017675	  0.081752	  0.092609	  0.057040	  0.019071	  0.134356	  0.135386	  0.084656	  0.020359	  0.027381	  0.029377	  0.145127	  0.212444	  0.359476	  0.202207	
2.0035	  0.019207	  0.017281	  0.078915	  0.093444	  0.056296	  0.019220	  0.137420	  0.138414	  0.086343	  0.020683	  0.026458	  0.029370	  0.144204	  0.210760	  0.361166	  0.203484	
2.004	  0.019275	  0.016897	  0.076133	  0.094342	  0.055572	  0.019381	  0.140530	  0.141502	  0.088048	  0.021016	  0.025554	  0.029382	  0.143303	  0.209082	  0.362829	  0.204780	
2.0045	  0.019360	  0.016523	  0.073404	  0.095303	  0.054870	  0.019552	  0.143686	  0.144649	  0.089772	  0.021358	  0.024671	  0.029412	  0.142422	  0.207410	  0.364463	  0.206095	
2.005	  0.019461	  0.016160	  0.070728	  0.096327	  0.054188	  0.019735	  0.146887	  0.147856	  0.091514	  0.021709	  0.023807	  0.029460	  0.141563	  0.205745	  0.366067	  0.207428	
2.0055	  0.019579	  0.015807	  0.068106	  0.097414	  0.053529	  0.019930	  0.150133	  0.151122	  0.093274	  0.022070	  0.022962	  0.029526	  0.140725	  0.204090	  0.367638	  0.208781	
2.006	  0.019713	  0.015465	  0.065536	  0.098566	  0.052890	  0.020136	  0.153422	  0.154446	  0.095051	  0.022439	  0.022137	  0.029610	  0.139909	  0.202444	  0.369177	  0.210154	
2.0065	  0.019864	  0.015133	  0.063019	  0.099781	  0.052274	  0.020353	  0.156756	  0.157827	  0.096845	  0.022817	  0.021331	  0.029714	  0.139116	  0.200809	  0.370681	  0.211547	
2.007	  0.020031	  0.014811	  0.060554	  0.101059	  0.051679	  0.020582	  0.160131	  0.161266	  0.098656	  0.023204	  0.020545	  0.029836	  0.138345	  0.199185	  0.372149	  0.212962	
2.0075	  0.020216	  0.014500	  0.058141	  0.102402	  0.051106	  0.020822	  0.163549	  0.164762	  0.100483	  0.023599	  0.019777	  0.029977	  0.137597	  0.197575	  0.373581	  0.214398	
2.008	  0.020417	  0.014200	  0.055779	  0.103809	  0.050556	  0.021073	  0.167007	  0.168314	  0.102325	  0.024004	  0.019027	  0.030137	  0.136871	  0.195978	  0.374974	  0.215858	
